<svg width="40" height="40" viewBox="0 0 40 40" fill="none" xmlns="http://www.w3.org/2000/svg">
<g clip-path="url(#clip0_23_538)">
<path d="M0 0H40V40H0V0Z" fill="#EE1C25"/>
<path d="M16 8.19998L5.8 14.8L10 3.99998L13.6 14.8L4 8.19998H16Z" fill="#FFFF00"/>
<path d="M18.4825 2.58198L22.1169 4.36206L18.3127 5.01572L20.7787 2.13493L20.5413 6.00833L18.4825 2.58198Z" fill="#FFFF00"/>
<path d="M23.1149 6.11001L25.772 9.16611L22.0107 8.28732L25.4057 6.59204L23.6785 10.0701L23.1149 6.11001Z" fill="#FFFF00"/>
<path d="M23.9511 11.9165L25.1293 15.7932L22.053 13.4539L25.8464 13.2926L22.848 15.7636L23.9511 11.9165Z" fill="#FFFF00"/>
<path d="M20.7819 16.065L20.3729 20.092L18.4399 16.75L21.9979 18.064L18.2819 19.185L20.7819 16.065Z" fill="#FFFF00"/>
</g>
<defs>
<clipPath id="clip0_23_538">
<rect width="40" height="40" fill="white"/>
</clipPath>
</defs>
</svg>
