<svg width="40" height="40" viewBox="0 0 40 40" fill="none" xmlns="http://www.w3.org/2000/svg">
<g clip-path="url(#clip0_23_294)">
<path d="M0 0H40V40H0V0Z" fill="#003399"/>
<path d="M20.0001 6.36035L19.4075 8.33566L20.3951 8.53319L20.0001 6.36035Z" fill="#FFCC00"/>
<path d="M19.9999 6.36035L20.5925 8.33566L19.6049 8.53319L19.9999 6.36035Z" fill="#FFCC00"/>
<path d="M21.8787 7.72526L19.8169 7.77207L19.9343 8.77243L21.8787 7.72526Z" fill="#FFCC00"/>
<path d="M21.8786 7.72526L20.1831 8.89925L19.6901 8.02098L21.8786 7.72526Z" fill="#FFCC00"/>
<path d="M21.161 9.93372L20.4793 7.98734L19.5642 8.40807L21.161 9.93372Z" fill="#FFCC00"/>
<path d="M21.1611 9.93372L19.5206 8.68398L20.2035 7.94365L21.1611 9.93372Z" fill="#FFCC00"/>
<path d="M18.1213 7.72526L20.1831 7.77207L20.0657 8.77243L18.1213 7.72526Z" fill="#FFCC00"/>
<path d="M18.1214 7.72526L19.8169 8.89925L20.3099 8.02098L18.1214 7.72526Z" fill="#FFCC00"/>
<path d="M18.839 9.93372L19.5207 7.98734L20.4358 8.40807L18.839 9.93372Z" fill="#FFCC00"/>
<path d="M18.8389 9.93372L20.4794 8.68398L19.7965 7.94365L18.8389 9.93372Z" fill="#FFCC00"/>
<path d="M20.0001 30.064L19.4075 32.0393L20.3951 32.2369L20.0001 30.064Z" fill="#FFCC00"/>
<path d="M19.9999 30.064L20.5925 32.0393L19.6049 32.2369L19.9999 30.064Z" fill="#FFCC00"/>
<path d="M21.8787 31.4289L19.8169 31.4758L19.9343 32.4761L21.8787 31.4289Z" fill="#FFCC00"/>
<path d="M21.8786 31.4289L20.1831 32.6029L19.6901 31.7247L21.8786 31.4289Z" fill="#FFCC00"/>
<path d="M21.161 33.6374L20.4793 31.691L19.5642 32.1118L21.161 33.6374Z" fill="#FFCC00"/>
<path d="M21.1611 33.6374L19.5206 32.3877L20.2035 31.6473L21.1611 33.6374Z" fill="#FFCC00"/>
<path d="M18.1213 31.4289L20.1831 31.4758L20.0657 32.4761L18.1213 31.4289Z" fill="#FFCC00"/>
<path d="M18.1214 31.4289L19.8169 32.6029L20.3099 31.7247L18.1214 31.4289Z" fill="#FFCC00"/>
<path d="M18.839 33.6374L19.5207 31.691L20.4358 32.1118L18.839 33.6374Z" fill="#FFCC00"/>
<path d="M18.8389 33.6374L20.4794 32.3877L19.7965 31.6473L18.8389 33.6374Z" fill="#FFCC00"/>
<path d="M8.14826 18.2122L7.55566 20.1875L8.54332 20.385L8.14826 18.2122Z" fill="#FFCC00"/>
<path d="M8.14813 18.2122L8.74072 20.1875L7.75307 20.385L8.14813 18.2122Z" fill="#FFCC00"/>
<path d="M10.0269 19.5771L7.96512 19.6239L8.08246 20.6243L10.0269 19.5771Z" fill="#FFCC00"/>
<path d="M10.0268 19.5771L8.33133 20.7511L7.83827 19.8728L10.0268 19.5771Z" fill="#FFCC00"/>
<path d="M9.30916 21.7856L8.62752 19.8392L7.71238 20.2599L9.30916 21.7856Z" fill="#FFCC00"/>
<path d="M9.30925 21.7856L7.66878 20.5358L8.3517 19.7955L9.30925 21.7856Z" fill="#FFCC00"/>
<path d="M6.26952 19.5771L8.33127 19.6239L8.21393 20.6243L6.26952 19.5771Z" fill="#FFCC00"/>
<path d="M6.26955 19.5771L7.96506 20.7511L8.45812 19.8728L6.26955 19.5771Z" fill="#FFCC00"/>
<path d="M6.98699 21.7856L7.66863 19.8392L8.58376 20.2599L6.98699 21.7856Z" fill="#FFCC00"/>
<path d="M6.98714 21.7856L8.62761 20.5358L7.94469 19.7955L6.98714 21.7856Z" fill="#FFCC00"/>
<path d="M13.0584 11.6111L14.6989 10.3613L14.016 9.62098L13.0584 11.6111Z" fill="#FFCC00"/>
<path d="M13.0585 11.6111L13.7402 9.66468L14.6553 10.0854L13.0585 11.6111Z" fill="#FFCC00"/>
<path d="M12.3408 9.40259L14.0363 10.5766L14.5294 9.69831L12.3408 9.40259Z" fill="#FFCC00"/>
<path d="M12.3408 9.40258L14.4026 9.4494L14.2852 10.4498L12.3408 9.40258Z" fill="#FFCC00"/>
<path d="M14.2195 8.03768L13.627 10.013L14.6146 10.2105L14.2195 8.03768Z" fill="#FFCC00"/>
<path d="M14.2194 8.03768L14.812 10.013L13.8244 10.2105L14.2194 8.03768Z" fill="#FFCC00"/>
<path d="M15.3805 11.6111L13.7401 10.3613L14.423 9.62098L15.3805 11.6111Z" fill="#FFCC00"/>
<path d="M15.3804 11.6111L14.6988 9.66469L13.7837 10.0854L15.3804 11.6111Z" fill="#FFCC00"/>
<path d="M16.0981 9.4026L14.4026 10.5766L13.9096 9.69831L16.0981 9.4026Z" fill="#FFCC00"/>
<path d="M16.0982 9.40259L14.0364 9.44941L14.1537 10.4498L16.0982 9.40259Z" fill="#FFCC00"/>
<path d="M10.9866 16.005L10.305 14.0587L9.38987 14.4794L10.9866 16.005Z" fill="#FFCC00"/>
<path d="M10.9865 16.005L9.34602 14.7553L10.0289 14.0149L10.9865 16.005Z" fill="#FFCC00"/>
<path d="M8.66438 16.005L10.3049 14.7553L9.62193 14.015L8.66438 16.005Z" fill="#FFCC00"/>
<path d="M8.66448 16.005L9.34612 14.0587L10.2613 14.4794L8.66448 16.005Z" fill="#FFCC00"/>
<path d="M7.94679 13.7966L9.6423 14.9706L10.1354 14.0923L7.94679 13.7966Z" fill="#FFCC00"/>
<path d="M7.94676 13.7966L10.0085 13.8434L9.89117 14.8437L7.94676 13.7966Z" fill="#FFCC00"/>
<path d="M11.7041 13.7966L10.0086 14.9706L9.51551 14.0923L11.7041 13.7966Z" fill="#FFCC00"/>
<path d="M11.7041 13.7966L9.64237 13.8434L9.7597 14.8437L11.7041 13.7966Z" fill="#FFCC00"/>
<path d="M9.82562 12.4317L10.4182 14.407L9.43056 14.6045L9.82562 12.4317Z" fill="#FFCC00"/>
<path d="M9.8255 12.4317L9.23291 14.407L10.2206 14.6045L9.8255 12.4317Z" fill="#FFCC00"/>
<path d="M11.7063 25.6768L9.64456 25.7237L9.7619 26.724L11.7063 25.6768Z" fill="#FFCC00"/>
<path d="M11.7063 25.6769L10.0108 26.8508L9.51771 25.9726L11.7063 25.6769Z" fill="#FFCC00"/>
<path d="M10.9888 27.8853L10.3072 25.9389L9.39207 26.3597L10.9888 27.8853Z" fill="#FFCC00"/>
<path d="M10.9887 27.8853L9.34822 26.6356L10.0311 25.8952L10.9887 27.8853Z" fill="#FFCC00"/>
<path d="M8.66658 27.8853L10.3071 26.6356L9.62413 25.8952L8.66658 27.8853Z" fill="#FFCC00"/>
<path d="M8.66667 27.8853L9.34831 25.9389L10.2634 26.3596L8.66667 27.8853Z" fill="#FFCC00"/>
<path d="M9.82757 24.3119L10.4202 26.2873L9.43251 26.4848L9.82757 24.3119Z" fill="#FFCC00"/>
<path d="M9.8277 24.3119L9.23511 26.2872L10.2228 26.4848L9.8277 24.3119Z" fill="#FFCC00"/>
<path d="M7.94896 25.6769L10.0107 25.7237L9.89337 26.724L7.94896 25.6769Z" fill="#FFCC00"/>
<path d="M7.94899 25.6769L9.6445 26.8509L10.1376 25.9726L7.94899 25.6769Z" fill="#FFCC00"/>
<path d="M15.9934 29.6527L13.9317 29.6995L14.049 30.6999L15.9934 29.6527Z" fill="#FFCC00"/>
<path d="M15.9934 29.6527L14.2979 30.8267L13.8048 29.9484L15.9934 29.6527Z" fill="#FFCC00"/>
<path d="M15.276 31.8611L14.5943 29.9148L13.6792 30.3355L15.276 31.8611Z" fill="#FFCC00"/>
<path d="M15.2758 31.8611L13.6353 30.6114L14.3183 29.8711L15.2758 31.8611Z" fill="#FFCC00"/>
<path d="M12.9537 31.8611L14.5942 30.6114L13.9112 29.8711L12.9537 31.8611Z" fill="#FFCC00"/>
<path d="M12.9538 31.8611L13.6354 29.9148L14.5506 30.3355L12.9538 31.8611Z" fill="#FFCC00"/>
<path d="M14.1147 28.2878L14.7073 30.2631L13.7196 30.4606L14.1147 28.2878Z" fill="#FFCC00"/>
<path d="M14.1148 28.2878L13.5222 30.2631L14.5099 30.4606L14.1148 28.2878Z" fill="#FFCC00"/>
<path d="M12.2361 29.6527L14.2978 29.6995L14.1805 30.6998L12.2361 29.6527Z" fill="#FFCC00"/>
<path d="M12.2361 29.6527L13.9316 30.8267L14.4247 29.9484L12.2361 29.6527Z" fill="#FFCC00"/>
<path d="M31.8517 18.2122L32.4443 20.1875L31.4567 20.385L31.8517 18.2122Z" fill="#FFCC00"/>
<path d="M31.8519 18.2122L31.2593 20.1875L32.2469 20.385L31.8519 18.2122Z" fill="#FFCC00"/>
<path d="M29.9731 19.5771L32.0349 19.6239L31.9175 20.6243L29.9731 19.5771Z" fill="#FFCC00"/>
<path d="M29.9732 19.5771L31.6687 20.7511L32.1617 19.8728L29.9732 19.5771Z" fill="#FFCC00"/>
<path d="M30.6908 21.7856L31.3725 19.8392L32.2876 20.2599L30.6908 21.7856Z" fill="#FFCC00"/>
<path d="M30.6907 21.7856L32.3312 20.5358L31.6483 19.7955L30.6907 21.7856Z" fill="#FFCC00"/>
<path d="M33.7305 19.5771L31.6687 19.6239L31.7861 20.6243L33.7305 19.5771Z" fill="#FFCC00"/>
<path d="M33.7305 19.5771L32.0349 20.7511L31.5419 19.8728L33.7305 19.5771Z" fill="#FFCC00"/>
<path d="M33.013 21.7856L32.3314 19.8392L31.4162 20.2599L33.013 21.7856Z" fill="#FFCC00"/>
<path d="M33.0129 21.7856L31.3724 20.5358L32.0553 19.7955L33.0129 21.7856Z" fill="#FFCC00"/>
<path d="M26.9416 11.6111L25.3011 10.3613L25.984 9.62098L26.9416 11.6111Z" fill="#FFCC00"/>
<path d="M26.9415 11.6111L26.2598 9.66468L25.3447 10.0854L26.9415 11.6111Z" fill="#FFCC00"/>
<path d="M27.6592 9.40259L25.9637 10.5766L25.4706 9.69831L27.6592 9.40259Z" fill="#FFCC00"/>
<path d="M27.6592 9.40258L25.5974 9.4494L25.7148 10.4498L27.6592 9.40258Z" fill="#FFCC00"/>
<path d="M25.7805 8.03768L26.373 10.013L25.3854 10.2105L25.7805 8.03768Z" fill="#FFCC00"/>
<path d="M25.7806 8.03768L25.188 10.013L26.1756 10.2105L25.7806 8.03768Z" fill="#FFCC00"/>
<path d="M24.6195 11.6111L26.2599 10.3613L25.577 9.62098L24.6195 11.6111Z" fill="#FFCC00"/>
<path d="M24.6196 11.6111L25.3012 9.66469L26.2163 10.0854L24.6196 11.6111Z" fill="#FFCC00"/>
<path d="M23.9019 9.4026L25.5974 10.5766L26.0904 9.69832L23.9019 9.4026Z" fill="#FFCC00"/>
<path d="M23.9018 9.40259L25.9636 9.44941L25.8463 10.4498L23.9018 9.40259Z" fill="#FFCC00"/>
<path d="M29.0134 16.005L29.695 14.0587L30.6101 14.4794L29.0134 16.005Z" fill="#FFCC00"/>
<path d="M29.0135 16.005L30.654 14.7553L29.9711 14.0149L29.0135 16.005Z" fill="#FFCC00"/>
<path d="M31.3356 16.005L29.6951 14.7553L30.3781 14.015L31.3356 16.005Z" fill="#FFCC00"/>
<path d="M31.3355 16.005L30.6539 14.0587L29.7387 14.4794L31.3355 16.005Z" fill="#FFCC00"/>
<path d="M32.0532 13.7966L30.3577 14.9706L29.8646 14.0923L32.0532 13.7966Z" fill="#FFCC00"/>
<path d="M32.0532 13.7966L29.9915 13.8434L30.1088 14.8437L32.0532 13.7966Z" fill="#FFCC00"/>
<path d="M28.2959 13.7966L29.9914 14.9706L30.4845 14.0923L28.2959 13.7966Z" fill="#FFCC00"/>
<path d="M28.2959 13.7966L30.3576 13.8434L30.2403 14.8437L28.2959 13.7966Z" fill="#FFCC00"/>
<path d="M30.1744 12.4317L29.5818 14.407L30.5694 14.6045L30.1744 12.4317Z" fill="#FFCC00"/>
<path d="M30.1745 12.4317L30.7671 14.407L29.7794 14.6045L30.1745 12.4317Z" fill="#FFCC00"/>
<path d="M28.2937 25.6768L30.3554 25.7237L30.2381 26.724L28.2937 25.6768Z" fill="#FFCC00"/>
<path d="M28.2937 25.6769L29.9892 26.8508L30.4823 25.9726L28.2937 25.6769Z" fill="#FFCC00"/>
<path d="M29.0112 27.8853L29.6928 25.9389L30.6079 26.3597L29.0112 27.8853Z" fill="#FFCC00"/>
<path d="M29.0113 27.8853L30.6518 26.6356L29.9689 25.8952L29.0113 27.8853Z" fill="#FFCC00"/>
<path d="M31.3334 27.8853L29.6929 26.6356L30.3759 25.8952L31.3334 27.8853Z" fill="#FFCC00"/>
<path d="M31.3333 27.8853L30.6517 25.9389L29.7366 26.3596L31.3333 27.8853Z" fill="#FFCC00"/>
<path d="M30.1724 24.3119L29.5798 26.2873L30.5675 26.4848L30.1724 24.3119Z" fill="#FFCC00"/>
<path d="M30.1723 24.3119L30.7649 26.2872L29.7772 26.4848L30.1723 24.3119Z" fill="#FFCC00"/>
<path d="M32.051 25.6769L29.9893 25.7237L30.1066 26.724L32.051 25.6769Z" fill="#FFCC00"/>
<path d="M32.051 25.6769L30.3555 26.8509L29.8624 25.9726L32.051 25.6769Z" fill="#FFCC00"/>
<path d="M24.0066 29.6527L26.0683 29.6995L25.951 30.6999L24.0066 29.6527Z" fill="#FFCC00"/>
<path d="M24.0066 29.6527L25.7021 30.8267L26.1952 29.9484L24.0066 29.6527Z" fill="#FFCC00"/>
<path d="M24.724 31.8611L25.4057 29.9148L26.3208 30.3355L24.724 31.8611Z" fill="#FFCC00"/>
<path d="M24.7242 31.8611L26.3647 30.6114L25.6817 29.8711L24.7242 31.8611Z" fill="#FFCC00"/>
<path d="M27.0463 31.8611L25.4058 30.6114L26.0888 29.8711L27.0463 31.8611Z" fill="#FFCC00"/>
<path d="M27.0462 31.8611L26.3646 29.9148L25.4494 30.3355L27.0462 31.8611Z" fill="#FFCC00"/>
<path d="M25.8853 28.2878L25.2927 30.2631L26.2804 30.4606L25.8853 28.2878Z" fill="#FFCC00"/>
<path d="M25.8852 28.2878L26.4778 30.2631L25.4901 30.4606L25.8852 28.2878Z" fill="#FFCC00"/>
<path d="M27.7639 29.6527L25.7022 29.6995L25.8195 30.6998L27.7639 29.6527Z" fill="#FFCC00"/>
<path d="M27.7639 29.6527L26.0684 30.8267L25.5753 29.9484L27.7639 29.6527Z" fill="#FFCC00"/>
</g>
<defs>
<clipPath id="clip0_23_294">
<rect width="40" height="40" fill="white"/>
</clipPath>
</defs>
</svg>
