<svg width="40" height="40" viewBox="0 0 40 40" fill="none" xmlns="http://www.w3.org/2000/svg">
<g clip-path="url(#clip0_23_723)">
<path d="M0 0H40V40H0" fill="#EC1B2E"/>
<path d="M22.0547 9.31255C15.8594 8.9063 13.0157 17.0313 18.8751 20.0313C16.8438 18.2813 17.2657 15.7032 18.086 14.3751L18.2344 14.4532C17.1563 16.2969 17.3594 18.5782 19.0938 20.0001C18.1094 19.0469 18.3594 16.9532 20.0469 16.1876C21.7344 15.4219 21.8907 13.1172 21.3282 12.3516C20.5626 11.0183 20.8047 10.0027 22.0547 9.30474V9.31255ZM19.0547 14.0626L18.6876 14.6407L18.5469 13.9688L17.8751 13.7891L18.4844 13.4532L18.4376 12.7501L18.9454 13.2344L19.5938 12.9766L19.3047 13.6016L19.7422 14.1407L19.0547 14.0626Z" fill="white"/>
<path d="M30.6545 19.3978C29.1264 13.3801 20.5203 13.1863 19.4778 19.686C20.5144 17.2134 23.0967 16.8179 24.6133 17.1877L24.5849 17.353C22.4982 16.8974 20.3914 17.7955 19.5751 19.8844C20.1774 18.6536 22.2459 18.2444 23.4955 19.6127C24.7451 20.981 26.9853 20.4174 27.5396 19.6459C28.5711 18.5057 29.6119 18.4222 30.6619 19.3953L30.6545 19.3978ZM25.2099 18.0124L24.5466 17.8419L25.1421 17.5005L25.1054 16.806L25.6132 17.2817L26.2675 17.0199L25.9637 17.6525L26.4093 18.1895L25.7255 18.1078L25.3481 18.6904L25.2099 18.0124Z" fill="white"/>
<path d="M23.7203 30.6932C28.9712 27.3803 26.4961 19.1355 19.9924 20.1525C22.6644 20.3744 23.8385 22.7081 23.9555 24.2648L23.7894 24.2888C23.5779 22.1635 22.0727 20.4373 19.8338 20.3064C21.1904 20.4989 22.2189 22.3397 21.3037 23.951C20.3885 25.5623 21.6167 27.5187 22.5218 27.8075C23.9249 28.4361 24.326 29.4001 23.7249 30.6995L23.7203 30.6932ZM23.3554 25.087L23.3127 24.4034L23.8213 24.8643L24.4705 24.6148L24.175 25.2448L24.6262 25.786L23.9307 25.6927L23.5576 26.2824L23.4241 25.6068L22.7533 25.4279L23.3554 25.087Z" fill="white"/>
<path d="M10.835 27.589C15.6084 31.5591 22.6847 26.6574 19.7078 20.7863C20.3225 23.396 18.4658 25.2338 17.0215 25.8261L16.9473 25.6756C18.9033 24.8177 20.0798 22.8527 19.5124 20.683C19.7486 22.0327 18.3156 23.5796 16.5004 23.2071C14.6852 22.8346 13.2041 24.6073 13.2091 25.5574C13.0448 27.0861 12.2519 27.7654 10.8304 27.5953L10.835 27.589ZM16.0541 25.5095L16.6909 25.2576L16.4098 25.8838L16.8477 26.4241L16.1573 26.3377L15.7819 26.9341L15.6558 26.2437L14.9796 26.0712L15.5809 25.7354L15.5438 25.0422L16.0541 25.5095Z" fill="white"/>
<path d="M9.80549 14.375C7.50466 20.1415 14.3532 25.3569 19.017 20.7113C16.725 22.1024 14.4034 20.9045 13.3938 19.7139L13.514 19.5969C14.9343 21.192 17.1667 21.7037 19.0549 20.4936C17.8443 21.1353 15.9302 20.2505 15.7236 18.409C15.5169 16.5675 13.3733 15.7067 12.4713 16.0051C10.9666 16.3212 10.0755 15.7771 9.79806 14.3726L9.80549 14.375ZM13.396 18.696L13.8323 19.2239L13.1499 19.15L12.7714 19.7334L12.6402 19.0501L11.957 18.8774L12.5746 18.5441L12.5297 17.8477L13.0348 18.3158L13.6827 18.0663L13.396 18.696Z" fill="white"/>
</g>
<defs>
<clipPath id="clip0_23_723">
<rect width="40" height="40" fill="white"/>
</clipPath>
</defs>
</svg>
