<svg width="40" height="40" viewBox="0 0 40 40" fill="none" xmlns="http://www.w3.org/2000/svg">
<g clip-path="url(#clip0_23_730)">
<path fill-rule="evenodd" clip-rule="evenodd" d="M0 0H40V40H0V0Z" fill="white"/>
<path fill-rule="evenodd" clip-rule="evenodd" d="M1.7168 13.0895L6.59336 5.77744L7.81204 6.5902L2.93548 13.9023L1.7168 13.0895ZM3.54482 14.3087L8.42138 6.99658L9.64007 7.80934L4.7635 15.1214L3.54482 14.3087ZM5.37285 15.5278L10.2494 8.21572L11.4681 9.02848L6.59153 16.3406L5.37285 15.5278Z" fill="black"/>
<path fill-rule="evenodd" clip-rule="evenodd" d="M28.5278 30.9703L33.4044 23.6582L34.6231 24.4709L29.7465 31.783L28.5278 30.9703ZM30.3559 32.1894L35.2324 24.8773L36.4511 25.6901L31.5745 33.0022L30.3559 32.1894ZM32.1839 33.4086L37.0604 26.0965L38.2791 26.9092L33.4026 34.2213L32.1839 33.4086Z" fill="black"/>
<path fill-rule="evenodd" clip-rule="evenodd" d="M30.3567 26.9078L36.4501 30.9716Z" fill="black"/>
<path d="M30.3567 26.9078L36.4501 30.9716" stroke="white" stroke-width="0.732422"/>
<path fill-rule="evenodd" clip-rule="evenodd" d="M12.6858 15.1228C13.9791 13.1835 15.9899 11.8374 18.2757 11.3807C20.5615 10.9239 22.9352 11.3939 24.8745 12.6873C26.8137 13.9806 28.1598 15.9914 28.6166 18.2772C29.0733 20.563 28.6033 22.9366 27.31 24.8759L12.6858 15.1228Z" fill="#CD2E3A"/>
<path fill-rule="evenodd" clip-rule="evenodd" d="M12.6859 15.1228C11.3925 17.0621 10.9226 19.4357 11.3793 21.7215C11.8361 24.0073 13.1821 26.0181 15.1214 27.3114C17.0607 28.6048 19.4344 29.0748 21.7202 28.618C24.006 28.1613 26.0167 26.8152 27.3101 24.8759C27.9568 23.9063 28.1918 22.7194 27.9634 21.5765C27.735 20.4336 27.062 19.4282 26.0923 18.7816C25.1227 18.1349 23.9359 17.8999 22.7929 18.1283C21.65 18.3567 20.6447 19.0297 19.998 19.9993L12.6859 15.1228Z" fill="#0047A0"/>
<path d="M19.9979 19.9994C21.3446 17.9802 20.7993 15.2517 18.7802 13.9051C16.761 12.5584 14.0325 13.1036 12.6858 15.1228C11.3392 17.142 11.8844 19.8705 13.9036 21.2172C15.9228 22.5638 18.6513 22.0186 19.9979 19.9994Z" fill="#CD2E3A"/>
<path fill-rule="evenodd" clip-rule="evenodd" d="M6.59741 34.2213L1.72085 26.9092L2.93953 26.0965L7.81609 33.4086L6.59741 34.2213ZM8.42544 33.0022L3.54887 25.6901L4.76756 24.8773L9.64412 32.1894L8.42544 33.0022ZM10.2535 31.783L5.3769 24.4709L6.59558 23.6582L11.4721 30.9703L10.2535 31.783Z" fill="black"/>
<path fill-rule="evenodd" clip-rule="evenodd" d="M33.4084 16.3406L28.5319 9.02848L29.7506 8.21572L34.6271 15.5278L33.4084 16.3406ZM35.2365 15.1214L30.3599 7.80934L31.5786 6.99658L36.4552 14.3087L35.2365 15.1214ZM37.0645 13.9023L32.1879 6.5902L33.4066 5.77744L38.2832 13.0895L37.0645 13.9023Z" fill="black"/>
<path fill-rule="evenodd" clip-rule="evenodd" d="M5.68237 29.5493L7.5104 28.3302ZM30.3607 13.0909L32.4934 11.6686ZM34.3214 10.4494L36.1494 9.23031Z" fill="black"/>
<path d="M5.68237 29.5493L7.5104 28.3302M30.3607 13.0909L32.4934 11.6686M34.3214 10.4494L36.1494 9.23031" stroke="white" stroke-width="0.732422"/>
</g>
<defs>
<clipPath id="clip0_23_730">
<rect width="40" height="40" fill="white"/>
</clipPath>
</defs>
</svg>
