<svg width="40" height="40" viewBox="0 0 40 40" fill="none" xmlns="http://www.w3.org/2000/svg">
<g clip-path="url(#clip0_23_575)">
<path fill-rule="evenodd" clip-rule="evenodd" d="M0 0H40V40H0V0Z" fill="#00247D"/>
<path d="M30.9683 12.1039V13.178L33.1165 12.1039H30.9683Z" fill="white"/>
<path d="M31.426 13.2977L30.7947 12.4287L33.1639 12.035L31.426 13.2977Z" fill="white"/>
<path d="M30.9683 12.1039V13.178L28.8201 12.1039H30.9683Z" fill="white"/>
<path d="M30.5105 13.2977L31.1418 12.4287L28.7726 12.035L30.5105 13.2977Z" fill="white"/>
<path d="M31.5813 12.5493L30.5598 12.8812L32.2451 14.5924L31.5813 12.5493Z" fill="white"/>
<path d="M30.5874 13.3535L31.2188 12.4845L32.3253 14.6161L30.5874 13.3535Z" fill="white"/>
<path d="M30.3555 12.5493L31.377 12.8812L31.0193 10.5062L30.3555 12.5493Z" fill="white"/>
<path d="M31.6321 12.4829L30.6106 12.8148L30.9683 10.4398L31.6321 12.4829Z" fill="white"/>
<path d="M30.3555 12.5493L31.377 12.8812L29.6916 14.5924L30.3555 12.5493Z" fill="white"/>
<path d="M31.3494 13.3535L30.718 12.4845L29.6114 14.6161L31.3494 13.3535Z" fill="white"/>
<path d="M30.9683 12.3225V13.0323L32.3878 12.3225H30.9683Z" fill="#CC142B"/>
<path d="M31.2707 13.1114L30.8535 12.5372L32.4191 12.277L31.2707 13.1114Z" fill="#CC142B"/>
<path d="M30.9683 12.3225V13.0323L29.5487 12.3225H30.9683Z" fill="#CC142B"/>
<path d="M30.6658 13.1114L31.083 12.5372L29.5174 12.277L30.6658 13.1114Z" fill="#CC142B"/>
<path d="M31.3733 12.6169L30.6983 12.8362L31.8119 13.9669L31.3733 12.6169Z" fill="#CC142B"/>
<path d="M30.7166 13.1482L31.1338 12.574L31.865 13.9826L30.7166 13.1482Z" fill="#CC142B"/>
<path d="M30.5632 12.6169L31.2383 12.8362L31.0019 11.2668L30.5632 12.6169Z" fill="#CC142B"/>
<path d="M31.407 12.573L30.7319 12.7923L30.9683 11.2229L31.407 12.573Z" fill="#CC142B"/>
<path d="M30.5632 12.6169L31.2383 12.8362L30.1246 13.9669L30.5632 12.6169Z" fill="#CC142B"/>
<path d="M31.2199 13.1482L30.8027 12.574L30.0715 13.9826L31.2199 13.1482Z" fill="#CC142B"/>
<path d="M36.5959 17.0638L36.5959 18.0196L38.5076 17.0638L36.5959 17.0638Z" fill="white"/>
<path d="M37.0032 18.126L36.4414 17.3528L38.5497 17.0024L37.0032 18.126Z" fill="white"/>
<path d="M36.5959 17.0638L36.5959 18.0196L34.6843 17.0638L36.5959 17.0638Z" fill="white"/>
<path d="M36.1887 18.126L36.7505 17.3528L34.6422 17.0024L36.1887 18.126Z" fill="white"/>
<path d="M37.1414 17.4601L36.2323 17.7554L37.7321 19.2781L37.1414 17.4601Z" fill="white"/>
<path d="M36.257 18.1757L36.8188 17.4024L37.8036 19.2993L36.257 18.1757Z" fill="white"/>
<path d="M36.0505 17.46L36.9596 17.7554L36.6413 15.642L36.0505 17.46Z" fill="white"/>
<path d="M37.1866 17.401L36.2776 17.6963L36.5959 15.5829L37.1866 17.401Z" fill="white"/>
<path d="M36.0505 17.4601L36.9596 17.7554L35.4598 19.2781L36.0505 17.4601Z" fill="white"/>
<path d="M36.9349 18.1757L36.373 17.4024L35.3883 19.2993L36.9349 18.1757Z" fill="white"/>
<path d="M36.5959 17.2823L36.5959 17.8738L37.7789 17.2823L36.5959 17.2823Z" fill="#CC142B"/>
<path d="M36.8479 17.9397L36.5002 17.4612L37.8049 17.2444L36.8479 17.9397Z" fill="#CC142B"/>
<path d="M36.5959 17.2823L36.5959 17.8738L35.413 17.2823L36.5959 17.2823Z" fill="#CC142B"/>
<path d="M36.344 17.9397L36.6917 17.4612L35.387 17.2444L36.344 17.9397Z" fill="#CC142B"/>
<path d="M36.9333 17.5276L36.3708 17.7104L37.2989 18.6526L36.9333 17.5276Z" fill="#CC142B"/>
<path d="M36.3862 17.9704L36.7339 17.4919L37.3432 18.6657L36.3862 17.9704Z" fill="#CC142B"/>
<path d="M36.2585 17.5276L36.8211 17.7104L36.6241 16.4026L36.2585 17.5276Z" fill="#CC142B"/>
<path d="M36.9614 17.4911L36.3989 17.6738L36.5959 16.366L36.9614 17.4911Z" fill="#CC142B"/>
<path d="M36.2585 17.5276L36.8211 17.7104L35.893 18.6526L36.2585 17.5276Z" fill="#CC142B"/>
<path d="M36.8057 17.9704L36.458 17.4919L35.8487 18.6657L36.8057 17.9704Z" fill="#CC142B"/>
<path d="M24.4111 18.7074L24.4111 19.7815L26.5593 18.7074L24.4111 18.7074Z" fill="white"/>
<path d="M24.8686 19.9012L24.2373 19.0322L26.6066 18.6385L24.8686 19.9012Z" fill="white"/>
<path d="M24.4111 18.7074L24.4111 19.7815L22.2629 18.7074L24.4111 18.7074Z" fill="white"/>
<path d="M23.9534 19.9012L24.5847 19.0322L22.2154 18.6385L23.9534 19.9012Z" fill="white"/>
<path d="M25.0239 19.1528L24.0024 19.4847L25.6878 21.1958L25.0239 19.1528Z" fill="white"/>
<path d="M24.03 19.9569L24.6614 19.088L25.768 21.2196L24.03 19.9569Z" fill="white"/>
<path d="M23.7981 19.1527L24.8196 19.4846L24.4619 17.1096L23.7981 19.1527Z" fill="white"/>
<path d="M25.075 19.0863L24.0535 19.4182L24.4112 17.0433L25.075 19.0863Z" fill="white"/>
<path d="M23.7981 19.1527L24.8196 19.4846L23.1343 21.1958L23.7981 19.1527Z" fill="white"/>
<path d="M24.792 19.9569L24.1606 19.0879L23.0541 21.2196L24.792 19.9569Z" fill="white"/>
<path d="M24.4111 18.926L24.4111 19.6357L25.8306 18.926L24.4111 18.926Z" fill="#CC142B"/>
<path d="M24.7136 19.7148L24.2964 19.1406L25.862 18.8804L24.7136 19.7148Z" fill="#CC142B"/>
<path d="M24.4111 18.926L24.4111 19.6357L22.9916 18.926L24.4111 18.926Z" fill="#CC142B"/>
<path d="M24.1087 19.7148L24.5259 19.1406L22.9603 18.8804L24.1087 19.7148Z" fill="#CC142B"/>
<path d="M24.8162 19.2203L24.1411 19.4396L25.2548 20.5703L24.8162 19.2203Z" fill="#CC142B"/>
<path d="M24.1592 19.7517L24.5764 19.1775L25.3076 20.586L24.1592 19.7517Z" fill="#CC142B"/>
<path d="M24.0061 19.2203L24.6811 19.4396L24.4448 17.8703L24.0061 19.2203Z" fill="#CC142B"/>
<path d="M24.8498 19.1764L24.1748 19.3958L24.4112 17.8264L24.8498 19.1764Z" fill="#CC142B"/>
<path d="M24.0061 19.2203L24.6811 19.4396L23.5674 20.5703L24.0061 19.2203Z" fill="#CC142B"/>
<path d="M24.6628 19.7517L24.2456 19.1775L23.5144 20.586L24.6628 19.7517Z" fill="#CC142B"/>
<path d="M30.9683 29.0672V30.2596L33.353 29.0672H30.9683Z" fill="white"/>
<path d="M31.4763 30.3924L30.7754 29.4278L33.4056 28.9907L31.4763 30.3924Z" fill="white"/>
<path d="M30.9683 29.0672V30.2596L28.5835 29.0672H30.9683Z" fill="white"/>
<path d="M30.4603 30.3924L31.1611 29.4278L28.5309 28.9907L30.4603 30.3924Z" fill="white"/>
<path d="M31.6487 29.5616L30.5146 29.93L32.3856 31.8296L31.6487 29.5616Z" fill="white"/>
<path d="M30.5455 30.4543L31.2463 29.4896L32.4748 31.856L30.5455 30.4543Z" fill="white"/>
<path d="M30.2878 29.5615L31.4219 29.93L31.0248 27.2935L30.2878 29.5615Z" fill="white"/>
<path d="M31.7053 29.4878L30.5713 29.8563L30.9684 27.2198L31.7053 29.4878Z" fill="white"/>
<path d="M30.2878 29.5616L31.4219 29.93L29.5509 31.8296L30.2878 29.5616Z" fill="white"/>
<path d="M31.3913 30.4543L30.6904 29.4896L29.462 31.856L31.3913 30.4543Z" fill="white"/>
<path d="M30.9683 29.2858V30.1139L32.6244 29.2858H30.9683Z" fill="#CC142B"/>
<path d="M31.3212 30.2061L30.8345 29.5362L32.661 29.2327L31.3212 30.2061Z" fill="#CC142B"/>
<path d="M30.9683 29.2858V30.1139L29.3122 29.2858H30.9683Z" fill="#CC142B"/>
<path d="M30.6156 30.2061L31.1023 29.5362L29.2758 29.2327L30.6156 30.2061Z" fill="#CC142B"/>
<path d="M31.4409 29.6291L30.6534 29.8849L31.9527 31.2041L31.4409 29.6291Z" fill="#CC142B"/>
<path d="M30.6747 30.249L31.1614 29.5791L32.0145 31.2224L30.6747 30.249Z" fill="#CC142B"/>
<path d="M30.4958 29.6291L31.2834 29.885L31.0076 28.054L30.4958 29.6291Z" fill="#CC142B"/>
<path d="M31.4802 29.5779L30.6926 29.8338L30.9684 28.0029L31.4802 29.5779Z" fill="#CC142B"/>
<path d="M30.4958 29.6291L31.2834 29.8849L29.9841 31.2041L30.4958 29.6291Z" fill="#CC142B"/>
<path d="M31.2621 30.249L30.7754 29.5791L29.9223 31.2224L31.2621 30.249Z" fill="#CC142B"/>
<path d="M0 0H20V20H0V0Z" fill="#012169"/>
<path d="M20 0V2.5L12.5781 10L20 17.3047V20H17.3828L9.92188 12.6562L2.65625 20H0V17.3438L7.26562 10.0391L0 2.89062V0H2.42188L9.92188 7.34375L17.1875 0H20Z" fill="white"/>
<path d="M7.1875 12.6562L7.61719 13.9844L1.64062 20H0V19.8828L7.1875 12.6562ZM12.0312 12.1875L14.1406 12.5L20 18.2422V20L12.0312 12.1875ZM20 0L12.5 7.65625L12.3438 5.9375L18.2031 0H20ZM0 0.0390625L7.53906 7.42188L5.23438 7.10938L0 1.91406V0.0390625Z" fill="#C8102E"/>
<path d="M6.875 0V20H13.125V0H6.875ZM0 6.875V13.125H20V6.875H0Z" fill="white"/>
<path d="M0 8.125V11.875H20V8.125H0ZM8.125 0V20H11.875V0H8.125Z" fill="#C8102E"/>
</g>
<defs>
<clipPath id="clip0_23_575">
<rect width="40" height="40" fill="white"/>
</clipPath>
</defs>
</svg>
