<svg width="40" height="40" viewBox="0 0 40 40" fill="none" xmlns="http://www.w3.org/2000/svg">
<g clip-path="url(#clip0_23_714)">
<mask id="mask0_23_714" style="mask-type:luminance" maskUnits="userSpaceOnUse" x="0" y="0" width="40" height="41">
<path d="M0.000976562 3.05176e-05H39.9976V40.0023H0.000976562V3.05176e-05Z" fill="white"/>
</mask>
<g mask="url(#mask0_23_714)">
<path fill-rule="evenodd" clip-rule="evenodd" d="M-1.5625 6.10352e-05H58.438V40.0023H-1.5625V6.10352e-05Z" fill="white"/>
<path fill-rule="evenodd" clip-rule="evenodd" d="M-1.5625 6.10352e-05H58.438V19.9984H-1.5625V6.10352e-05Z" fill="#DF0000"/>
<path fill-rule="evenodd" clip-rule="evenodd" d="M12.2776 3.3529C10.6986 3.69121 9.28419 4.56256 8.27182 5.8206C7.25946 7.07865 6.71085 8.64674 6.71813 10.2615C6.72541 11.8763 7.28815 13.4394 8.31182 14.6882C9.33548 15.9371 10.7577 16.7957 12.3397 17.1197C11.2745 17.4314 10.1515 17.4914 9.05927 17.2948C7.967 17.0983 6.93535 16.6506 6.0457 15.9871C5.15605 15.3236 4.43274 14.4625 3.93284 13.4716C3.43294 12.4808 3.17012 11.3873 3.16511 10.2775C3.16011 9.16774 3.41305 8.07196 3.904 7.07664C4.39494 6.08133 5.11045 5.21371 5.99408 4.54223C6.87771 3.87075 7.90528 3.41379 8.99573 3.20739C10.0862 3.00099 11.2097 3.0508 12.2776 3.3529Z" fill="white"/>
<path fill-rule="evenodd" clip-rule="evenodd" d="M9.83926 9.16669L8.77246 8.38776L10.0989 8.37647L10.5053 7.11775L10.9286 8.37647H12.2494L11.1883 9.16669L11.5947 10.4254L10.5166 9.65211L9.44415 10.431L9.83926 9.16669ZM11.3068 13.5073L10.2344 12.7283L11.5608 12.7171L11.9729 11.4583L12.3906 12.7114H13.717L12.6446 13.5016L13.0566 14.7603L11.9842 13.9927L10.9117 14.7716L11.3068 13.5073ZM16.178 13.4734L15.1055 12.6945L16.4263 12.6832L16.8384 11.4245L17.2561 12.6832H18.5882L17.5214 13.4734L17.9334 14.7321L16.8553 13.9588L15.7829 14.7378L16.178 13.4734ZM17.6286 9.17233L16.5562 8.3934L17.8826 8.38211L18.289 7.1234L18.7123 8.37647H20.0331L18.972 9.16669L19.3784 10.4254L18.3003 9.65776L17.2279 10.4367L17.6286 9.17233ZM13.7734 6.32189L12.701 5.54295L14.0274 5.53166L14.4395 4.27295L14.8572 5.53166H16.1836L15.1112 6.32189L15.5232 7.57495L14.4508 6.80731L13.3783 7.58624L13.7734 6.32189Z" fill="white"/>
</g>
</g>
<defs>
<clipPath id="clip0_23_714">
<rect width="40" height="40" fill="white"/>
</clipPath>
</defs>
</svg>
