<svg width="40" height="40" viewBox="0 0 40 40" fill="none" xmlns="http://www.w3.org/2000/svg">
<g clip-path="url(#clip0_23_1159)">
<mask id="mask0_23_1159" style="mask-type:luminance" maskUnits="userSpaceOnUse" x="0" y="0" width="41" height="41">
<path d="M0 0H40.0004V40.0004H0V0Z" fill="white"/>
</mask>
<g mask="url(#mask0_23_1159)">
<path fill-rule="evenodd" clip-rule="evenodd" d="M0 0H76.0007V3.07695H0V0ZM0 6.15391H76.0007V9.23086H0V6.15391ZM0 12.3078H76.0007V15.3848H0V12.3078ZM0 18.4617H76.0007V21.5387H0V18.4617ZM0 24.6156H76.0007V27.6926H0V24.6156ZM0 30.7695H76.0007V33.8465H0V30.7695ZM0 36.9234H76.0007V40.0004H0V36.9234Z" fill="#BD3D44"/>
<path fill-rule="evenodd" clip-rule="evenodd" d="M0 3.07695H76.0007V6.15391H0V3.07695ZM0 9.23086H76.0007V12.3078H0V9.23086ZM0 15.3848H76.0007V18.4617H0V15.3848ZM0 21.5387H76.0007V24.6156H0V21.5387ZM0 27.6926H76.0007V30.7695H0V27.6926ZM0 33.8465H76.0007V36.9234H0V33.8465Z" fill="white"/>
<path fill-rule="evenodd" clip-rule="evenodd" d="M0 0H30.4003V21.5387H0V0Z" fill="#192F5D"/>
<path fill-rule="evenodd" clip-rule="evenodd" d="M2.52299 0.923084L2.83069 1.78463H3.69224L2.98454 2.30771L3.26146 3.13849L2.52299 2.61541L1.84606 3.13849L2.12299 2.30771L1.38452 1.78463H2.30761L2.52299 0.923084ZM7.59997 0.923084L7.87689 1.78463H8.76921L8.03074 2.30771L8.33844 3.13849L7.59997 2.61541L6.8615 3.13849L7.16919 2.30771L6.43072 1.78463H7.32304L7.59997 0.923084ZM12.6769 0.923084L12.9539 1.78463H13.8462L13.1077 2.30771L13.4154 3.13849L12.6769 2.61541L11.9385 3.13849L12.2462 2.30771L11.5077 1.78463H12.4L12.6769 0.923084ZM17.7231 0.923084L18.0308 1.78463H18.8924L18.1847 2.30771L18.4616 3.13849L17.7231 2.61541L17.0154 3.13849L17.2924 2.30771L16.5539 1.78463H17.477L17.7231 0.923084ZM22.8001 0.923084L23.077 1.78463H23.9694L23.2309 2.30771L23.5386 3.13849L22.7693 2.61541L22.0616 3.13849L22.3386 2.30771L21.6001 1.78463H22.4924L22.8001 0.923084ZM27.8771 0.923084L28.154 1.78463H29.0463L28.3079 2.30771L28.6156 3.13849L27.8771 2.61541L27.1386 3.13849L27.4463 2.30771L26.7078 1.78463H27.6002L27.8771 0.923084ZM5.07687 3.07695L5.35379 3.9385H6.24611L5.50764 4.46158L5.81533 5.29236L5.07687 4.76928L4.3384 5.29236L4.64609 4.46158L3.90762 3.9385H4.79994L5.07687 3.07695ZM10.1231 3.07695L10.4308 3.9385H11.2923L10.5846 4.46158L10.8615 5.29236L10.1231 4.76928L9.41537 5.29236L9.6923 4.46158L8.95383 3.9385H9.87691L10.1231 3.07695ZM15.2 3.07695L15.477 3.9385H16.3693L15.6308 4.46158L15.9385 5.29236L15.2 4.76928L14.4616 5.29236L14.7693 4.46158L14.0308 3.9385H14.9231L15.2 3.07695ZM20.277 3.07695L20.5539 3.9385H21.4463L20.7078 4.46158L21.0155 5.29236L20.277 4.76928L19.5385 5.29236L19.8462 4.46158L19.1078 3.9385H20.0001L20.277 3.07695ZM25.3232 3.07695L25.6309 3.9385H26.4617L25.754 4.46158L26.0309 5.29236L25.2924 4.76928L24.5847 5.29236L24.8617 4.46158L24.1232 3.9385H25.0463L25.3232 3.07695ZM2.55376 5.23082L2.79992 6.09237H3.72301L2.98454 6.61545L3.26146 7.44622L2.52299 6.92314L1.84606 7.44622L2.12299 6.61545L1.38452 6.09237H2.30761L2.55376 5.23082ZM7.59997 5.23082L7.87689 6.09237H8.76921L8.06151 6.61545L8.33844 7.44622L7.59997 6.92314L6.89227 7.44622L7.16919 6.61545L6.43072 6.09237H7.32304L7.59997 5.23082ZM12.6769 5.23082L12.9539 6.09237H13.8462L13.1077 6.61545L13.4154 7.44622L12.6769 6.92314L11.9385 7.44622L12.2462 6.61545L11.5077 6.09237H12.4L12.6769 5.23082ZM17.7231 5.23082L18.0308 6.09237H18.8924L18.1847 6.61545L18.4616 7.44622L17.7231 6.92314L17.0154 7.44622L17.2924 6.61545L16.5539 6.09237H17.477L17.7231 5.23082ZM22.8001 5.23082L23.077 6.09237H23.9694L23.2617 6.61545L23.5386 7.44622L22.8001 6.92314L22.0924 7.44622L22.3693 6.61545L21.6309 6.09237H22.5232L22.8001 5.23082ZM27.8771 5.23082L28.154 6.09237H29.0463L28.3079 6.61545L28.6156 7.44622L27.8771 6.92314L27.1386 7.44622L27.4463 6.61545L26.7078 6.09237H27.6002L27.8771 5.23082ZM5.07687 7.38469L5.35379 8.24623H6.24611L5.50764 8.76931L5.81533 9.60009L5.07687 9.07701L4.3384 9.60009L4.64609 8.76931L3.90762 8.24623H4.79994L5.07687 7.38469ZM10.1231 7.38469L10.4308 8.24623H11.2923L10.5846 8.76931L10.8615 9.60009L10.1231 9.07701L9.41537 9.60009L9.6923 8.76931L8.95383 8.24623H9.87691L10.1231 7.38469ZM15.2 7.38469L15.477 8.24623H16.3693L15.6616 8.76931L15.9385 9.60009L15.2 9.07701L14.4923 9.60009L14.7693 8.76931L14.0308 8.24623H14.9231L15.2 7.38469ZM20.277 7.38469L20.5539 8.24623H21.4463L20.7078 8.76931L21.0155 9.60009L20.277 9.07701L19.5385 9.60009L19.8462 8.76931L19.1078 8.24623H20.0001L20.277 7.38469ZM25.3232 7.38469L25.6309 8.24623H26.4617L25.754 8.76931L26.0309 9.60009L25.2924 9.07701L24.5847 9.60009L24.8617 8.76931L24.1232 8.24623H25.0463L25.3232 7.38469ZM2.55376 9.53855L2.79992 10.4001H3.72301L2.98454 10.9232L3.26146 11.754L2.52299 11.2309L1.84606 11.754L2.12299 10.9232L1.38452 10.4001H2.30761L2.55376 9.53855ZM7.59997 9.53855L7.87689 10.4001H8.76921L8.06151 10.9232L8.33844 11.754L7.59997 11.2309L6.89227 11.754L7.16919 10.9232L6.43072 10.4001H7.32304L7.59997 9.53855ZM12.6769 9.53855L12.9539 10.4001H13.8462L13.1077 10.9232L13.4154 11.754L12.6769 11.2309L11.9385 11.754L12.2462 10.9232L11.5077 10.4001H12.4L12.6769 9.53855ZM17.7231 9.53855L18.0308 10.4001H18.8924L18.1847 10.9232L18.4616 11.754L17.7231 11.2309L17.0154 11.754L17.2924 10.9232L16.5539 10.4001H17.477L17.7231 9.53855ZM22.8001 9.53855L23.077 10.4001H23.9694L23.2617 10.9232L23.5386 11.754L22.8001 11.2309L22.0924 11.754L22.3693 10.9232L21.6309 10.4001H22.5232L22.8001 9.53855ZM27.8771 9.53855L28.154 10.4001H29.0463L28.3079 10.9232L28.6156 11.754L27.8771 11.2309L27.1386 11.754L27.4463 10.9232L26.7078 10.4001H27.6002L27.8771 9.53855ZM5.07687 11.6924L5.35379 12.554H6.24611L5.50764 13.077L5.81533 13.9078L5.07687 13.3847L4.3384 13.9078L4.64609 13.077L3.90762 12.554H4.79994L5.07687 11.6924ZM10.1231 11.6924L10.4308 12.554H11.2923L10.5846 13.077L10.8615 13.9078L10.1231 13.3847L9.41537 13.9078L9.6923 13.077L8.95383 12.554H9.87691L10.1231 11.6924ZM15.2 11.6924L15.477 12.554H16.3693L15.6616 13.077L15.9385 13.9078L15.2 13.3847L14.4923 13.9078L14.7693 13.077L14.0308 12.554H14.9231L15.2 11.6924ZM20.277 11.6924L20.5539 12.554H21.4463L20.7078 13.077L21.0155 13.9078L20.277 13.3847L19.5385 13.9078L19.8462 13.077L19.1078 12.554H20.0001L20.277 11.6924ZM25.3232 11.6924L25.6309 12.554H26.4617L25.754 13.077L26.0309 13.9078L25.2924 13.3847L24.5847 13.9078L24.8617 13.077L24.1232 12.554H25.0463L25.3232 11.6924ZM2.55376 13.8463L2.79992 14.7078H3.72301L2.98454 15.2309L3.26146 16.0617L2.52299 15.5386L1.84606 16.0617L2.12299 15.2309L1.38452 14.7078H2.30761L2.55376 13.8463ZM7.59997 13.8463L7.87689 14.7078H8.76921L8.06151 15.2309L8.33844 16.0617L7.59997 15.5386L6.89227 16.0617L7.16919 15.2309L6.43072 14.7078H7.32304L7.59997 13.8463ZM12.6769 13.8463L12.9539 14.7078H13.8462L13.1077 15.2309L13.4154 16.0617L12.6769 15.5386L11.9385 16.0617L12.2462 15.2309L11.5077 14.7078H12.4L12.6769 13.8463ZM17.7231 13.8463L18.0308 14.7078H18.8924L18.1847 15.2309L18.4616 16.0617L17.7231 15.5386L17.0154 16.0617L17.2924 15.2309L16.5539 14.7078H17.477L17.7231 13.8463ZM22.8001 13.8463L23.077 14.7078H23.9694L23.2617 15.2309L23.5386 16.0617L22.8001 15.5386L22.0924 16.0617L22.3693 15.2309L21.6309 14.7078H22.5232L22.8001 13.8463ZM27.8771 13.8463L28.154 14.7078H29.0463L28.3079 15.2309L28.6156 16.0617L27.8771 15.5386L27.1386 16.0617L27.4463 15.2309L26.7078 14.7078H27.6002L27.8771 13.8463ZM5.07687 16.0002L5.35379 16.8617H6.24611L5.50764 17.3848L5.81533 18.2156L5.07687 17.6925L4.3384 18.2156L4.64609 17.3848L3.90762 16.8617H4.79994L5.07687 16.0002ZM10.1231 16.0002L10.4308 16.8617H11.2923L10.5846 17.3848L10.8615 18.2156L10.1231 17.6925L9.41537 18.2156L9.6923 17.3848L8.95383 16.8617H9.87691L10.1231 16.0002ZM15.2 16.0002L15.477 16.8617H16.3693L15.6616 17.3848L15.9385 18.2156L15.2 17.6925L14.4923 18.2156L14.7693 17.3848L14.0308 16.8617H14.9231L15.2 16.0002ZM20.277 16.0002L20.5539 16.8617H21.4463L20.7078 17.3848L21.0155 18.2156L20.277 17.6925L19.5385 18.2156L19.8462 17.3848L19.1078 16.8617H20.0001L20.277 16.0002ZM25.3232 16.0002L25.6309 16.8617H26.4617L25.754 17.3848L26.0309 18.2156L25.2924 17.6925L24.5847 18.2156L24.8617 17.3848L24.1232 16.8617H25.0463L25.3232 16.0002ZM2.55376 18.154L2.79992 19.0156H3.72301L2.98454 19.5386L3.26146 20.3694L2.52299 19.8463L1.84606 20.3694L2.12299 19.5386L1.38452 19.0156H2.30761L2.55376 18.154ZM7.59997 18.154L7.87689 19.0156H8.76921L8.06151 19.5386L8.33844 20.3694L7.59997 19.8463L6.89227 20.3694L7.16919 19.5386L6.43072 19.0156H7.32304L7.59997 18.154ZM12.6769 18.154L12.9539 19.0156H13.8462L13.1077 19.5386L13.4154 20.3694L12.6769 19.8463L11.9385 20.3694L12.2462 19.5386L11.5077 19.0156H12.4L12.6769 18.154ZM17.7231 18.154L18.0308 19.0156H18.8924L18.1847 19.5386L18.4616 20.3694L17.7231 19.8463L17.0154 20.3694L17.2924 19.5386L16.5539 19.0156H17.477L17.7231 18.154ZM22.8001 18.154L23.077 19.0156H23.9694L23.2617 19.5386L23.5386 20.3694L22.8001 19.8463L22.0924 20.3694L22.3693 19.5386L21.6309 19.0156H22.5232L22.8001 18.154ZM27.8771 18.154L28.154 19.0156H29.0463L28.3079 19.5386L28.6156 20.3694L27.8771 19.8463L27.1386 20.3694L27.4463 19.5386L26.7078 19.0156H27.6002L27.8771 18.154Z" fill="white"/>
</g>
</g>
<defs>
<clipPath id="clip0_23_1159">
<rect width="40" height="40" fill="white"/>
</clipPath>
</defs>
</svg>
