<svg width="25" height="25" viewBox="0 0 25 25" fill="none" xmlns="http://www.w3.org/2000/svg">
<path d="M12.806 12.806C12.806 13.736 12.806 14.2576 12.806 15.1876L21.6565 24.0381C22.314 24.6956 23.3805 24.6956 24.038 24.0381C24.6956 23.3805 24.6956 22.3141 24.038 21.6565L15.1876 12.806C14.2576 12.806 13.736 12.806 12.806 12.806Z" fill="white"/>
<path d="M12.806 11.7252C13.736 11.7252 14.2576 11.7252 15.1876 11.7252L24.038 2.87476C24.6956 2.21719 24.6956 1.15074 24.038 0.493176C23.3805 -0.164392 22.314 -0.164392 21.6565 0.493176L12.806 9.34365C12.806 10.2736 12.806 10.7952 12.806 11.7252Z" fill="white"/>
<path d="M11.7252 11.7252C11.7252 10.7952 11.7252 10.2736 11.7252 9.34365L2.87475 0.493176C2.21718 -0.164392 1.15074 -0.164392 0.493173 0.493176C-0.164393 1.15074 -0.164393 2.21719 0.493173 2.87476L9.34361 11.7252C10.2736 11.7252 10.7952 11.7252 11.7252 11.7252Z" fill="white"/>
<path d="M11.7252 12.806C10.7952 12.806 10.2736 12.806 9.34361 12.806L0.493173 21.6565C-0.164393 22.3141 -0.164393 23.3805 0.493173 24.0381C1.15074 24.6956 2.21718 24.6956 2.87475 24.0381L11.7252 15.1876C11.7252 14.2576 11.7252 13.736 11.7252 12.806Z" fill="white"/>
</svg>
