<svg width="831" height="556" viewBox="0 0 831 556" fill="none" xmlns="http://www.w3.org/2000/svg">
<g style="mix-blend-mode:color-burn">
<path d="M695.625 298.072H693.73L687.813 297.983L671.515 278.178L666.473 278.589L651.149 268.904L642.961 269.271L621.987 249.588L625.488 241.148L614.807 228.683L604.514 227.137L603.771 223.534L598.641 221.922L589.921 204.219L583.783 187.683L581.888 177.531L570.831 172.049L568.725 169.691L562.742 162.975L542.543 185.348L528.627 192.465L514.167 212.47L522.599 228.182L549.945 249.322L552.249 254.537L559.507 258.596L565.867 271.773L577.257 277.867L591.761 293.746L569.822 282.27L570.864 285.784L574.055 293.379L566.72 287.574L559.385 285.784L570.465 306.745L552.305 289.342L543.729 275.709L538.045 271.306L537.768 275.921L511.375 246.908L502.833 244.796L493.293 237.468L484.174 221.8L474.257 211.191L468.629 211.68L455.831 202.195L462.235 214.572L450.313 206.287L452.452 213.359L435.145 204.074L436.142 196.746L433.372 190.23L431.433 190.975L434.159 181.945L431.056 185.026L430.436 178.554L426.104 177.053L429.572 175.985L429.195 163.353L414.702 153.256L413.539 161.474L409.151 167.156L410.669 154.257L413.738 149.008L410.503 146.55L407.201 150.398L398.658 138.077L405.185 119.262L402.581 120.63L402.924 110.755L399.379 113.98L393.883 124.866L377.196 147.118L363.9 156.481L355.258 175.162L354.006 177.898L340.333 200.394L320.378 216.484L311.348 228.705L325.597 241.148L348.422 230.673C353.951 234.888 359.457 239.091 364.986 243.306L422.126 285.317L450.48 300.485L466.623 300.118L522.411 343.408L541.025 357.842L546.255 355.729L550.31 359.454L562.044 363.713L572.914 369.973L592.536 353.193L599.439 338.159L616.458 363.346L621.499 360.989L626.541 367.627L638.197 358.275L644.114 347.889L648.202 348.312L652.014 343.864L657.332 345.699L668.024 361.767L679.459 368.928L685.021 376.746L689.154 368.361L692.622 371.541L698.949 371.986L702.55 376.801L704.71 377.179L705.087 374.333L708.344 379.27L710.627 378.414L772.819 355.073L695.58 298.094L695.625 298.072ZM572.592 232.708L575.65 224.168L578.864 219.687L583.118 220.565L572.592 232.708ZM407.855 195.267L403.511 187.272L399.024 182.579L396.996 185.938L397.938 194.611L390.005 187.661L384.731 199.293L384.243 194.778L388.542 185.215L388.598 179.544L381.817 169.758L382.969 161.129L389.54 148.485L398.703 157.693L399.068 163.197L403.733 168.846L404.819 178.621L409.639 186.694L407.855 195.267ZM450.003 242.127L438.391 235.989L432.763 232.097L428.375 233.008L421.095 226.581L416.176 224.746L415.722 221.733L413.495 218.675L419.866 206.209L419.81 195.756L425.882 189.385L422.702 197.625L425.018 201.483L429.738 213.304L432.885 214.56L443.2 226.025L443.909 230.184L452.419 239.08L463.787 250.656L450.003 242.116V242.127ZM615.084 244.584L619.66 239.825L615.084 249.722V244.584ZM617.71 307.479L614.397 305.533L610.563 298.694L604.447 297.538L606.508 303.798L602.453 302.141L596.957 305.01L601.245 299.717L600.392 295.002L611.882 290.577L629.156 317.632L617.71 307.468V307.479ZM655.46 334.612L647.648 329.563L655.172 332.31L644.59 321.401L659.238 329.93L669.066 342.018L655.471 334.612H655.46Z" fill="#373D52"/>
<path d="M708.378 379.248L656.767 398.608L624.314 403.99L576.038 415.299L516.239 433.502L457.936 420.692L437.815 430.3L424.962 417.667L345.33 449.626L242.851 399.619L192.559 412.83L172.981 403.756L156.051 408.949L140.849 400.131L118.113 406.714L103 398.73L86.1138 402.344C86.1138 402.344 59.0786 399.642 59.5661 399.264C65.4274 396.706 71.3441 394.237 77.3052 391.88L82.413 380.871L114.368 359.777L132.672 330.742L162.123 295.881L176.726 296.092L185.845 290.443L221.545 250.5H229.976L267.094 213.626L269.532 274.586L281.92 321.479L307.359 342.396L301.952 302.742L289.554 291.555L273.399 264.056L297.72 284.983L280.9 248.932L294.728 261.932L288.279 245.986L278.895 231.607L285.41 235.966L289.509 233.576L292.346 234.765L296.889 232.108L306.794 226.314L310.883 246.163L316.567 251.501L325.652 241.104L348.477 230.629C348.233 231.174 348.156 253.714 348.156 253.714L376.676 288.686L380.299 309.525L380.343 309.803L374.903 328.663L399.755 346.199L398.858 326.594L392.553 320.801L381.994 301.041L397.273 314.663L382.415 275.631L380.875 264.434L410.237 294.068L424.32 308.725L451.444 328.451L443.466 307.513L457.537 306.478L465.094 308.469L499.232 338.359L490.301 322.669L522.466 343.352L541.081 357.786L546.31 355.673L550.366 359.398L562.099 363.657L572.969 369.918L592.592 353.138L599.494 338.104L616.513 363.29L621.555 360.933L626.596 367.572L638.252 358.22L644.169 347.834L648.258 348.256L652.069 343.808L657.387 345.643L668.08 361.711L679.514 368.873L685.076 376.69L689.209 368.306L692.677 371.486L699.004 371.931L702.605 376.746L704.766 377.124L705.142 374.277L708.4 379.214L708.378 379.248Z" fill="#292F44"/>
<path d="M574.044 293.379L570.853 285.784L569.811 282.27L591.75 293.746L577.246 277.867L565.856 271.773L559.496 258.596L552.238 254.537L549.934 249.322L522.588 228.182L514.156 212.47L503.132 191.887L495.154 182.679L486.778 164.976L466.834 150.465L455.765 135.542L446.103 120.241L422.447 104.005L422.026 110.711L430.358 115.726L431.09 125.756L432.054 129.893L434.901 134.341L430.48 133.996L429.405 129.948L416.187 115.581L410.736 114.08H410.691L408.365 113.413L402.957 110.755L402.614 120.63L405.218 119.262L398.692 138.077L407.234 150.398L410.536 146.55L413.772 149.008L410.702 154.257L409.184 167.156L413.572 161.474L414.736 153.256L429.228 163.353L429.605 175.985L426.137 177.053L430.469 178.554L431.09 185.026L434.192 181.945L431.466 190.975L433.405 190.23L436.175 196.746L435.178 204.074L452.485 213.359L450.347 206.287L462.269 214.572L455.864 202.195L468.662 211.68L474.29 211.191L484.207 221.8L493.326 237.468L502.866 244.796L511.408 246.908L537.801 275.921L538.078 271.306L543.762 275.709L552.338 289.342L570.498 306.745L559.418 285.784L566.753 287.574L574.088 293.379H574.044ZM471.631 202.929L448.374 180.622L443.366 168.891L433.649 159.828L427.832 148.385L437.605 155.346L434.247 146.728L446.313 155.802L455.798 168.39L471.687 182.112L471.653 202.94L471.631 202.929Z" fill="white"/>
<path d="M693.73 298.061L687.802 297.983L671.515 278.178L666.473 278.589L651.138 268.904L642.95 269.271L621.976 249.588L625.477 241.148L614.796 228.694L604.503 227.137L603.76 223.534L598.619 221.933L589.899 204.219L583.772 187.683L581.877 177.531L570.82 172.049L568.714 169.691L576.448 164.476L602.996 185.815L626.652 225.925L634.895 226.603L652.069 253.325L664.745 263.711L672.789 271.083L693.73 298.061Z" fill="white"/>
<path d="M434.89 134.318L430.469 133.974L429.394 129.926L416.165 115.57L410.713 114.058L422.436 103.983L422.015 110.688L430.347 115.704L431.067 125.734L432.042 129.87L434.89 134.318Z" fill="#373D52"/>
<path d="M409.639 186.694L407.855 195.267L403.511 187.272L399.024 182.579L396.996 185.938L397.938 194.611L390.005 187.672L384.731 199.293L384.243 194.778L388.542 185.226L388.609 179.555L381.817 169.769L382.969 161.129L389.551 148.485L398.703 157.693L399.068 163.197L403.733 168.857L404.83 178.632L409.639 186.694Z" fill="#EDF0F7"/>
<path d="M463.787 250.667L450.003 242.127L438.38 235.989L432.752 232.097L428.364 233.008L421.073 226.581L416.154 224.735L415.699 221.733L413.472 218.675L419.843 206.209L419.788 195.756L425.86 189.385L422.68 197.625L424.996 201.483L429.727 213.315L432.873 214.572L443.189 226.036L443.898 230.195L452.408 239.091L463.787 250.667Z" fill="#EDF0F7"/>
<path d="M471.653 182.112L471.631 202.929L448.363 180.622L443.355 168.879L433.627 159.828L427.81 148.385L437.582 155.346L434.225 146.728L446.291 155.802L455.765 168.379L471.653 182.112Z" fill="#373D52"/>
<path d="M522.4 343.386L466.612 300.095L450.468 300.462L422.115 285.295L364.975 243.283C359.446 239.069 353.94 234.866 348.411 230.651C348.167 231.196 348.089 253.736 348.089 253.736L376.609 288.709L380.232 309.547L380.277 309.825L374.836 328.685L399.689 346.221L398.791 326.617L392.487 320.823L381.928 301.063L397.207 314.685L382.349 275.654L380.809 264.456L410.171 294.091L424.253 308.747L451.377 328.474L443.399 307.535L457.471 306.501L465.028 308.491L499.165 338.382L490.235 322.691L522.4 343.374V343.386Z" fill="white"/>
<path d="M629.156 317.654L617.71 307.479L614.386 305.533L610.552 298.694L604.436 297.538L606.497 303.798L602.442 302.142L596.946 305.022L601.234 299.728L600.381 295.014L611.871 290.599L629.156 317.654Z" fill="white"/>
<path d="M669.055 342.018L655.46 334.612L647.648 329.563L655.171 332.321L644.59 321.401L659.227 329.93L669.055 342.018Z" fill="white"/>
<path d="M619.66 239.836L615.084 249.722V244.584L619.66 239.836Z" fill="white"/>
<path d="M583.118 220.565L572.592 232.708L575.65 224.157L578.864 219.676L583.118 220.565Z" fill="white"/>
<path d="M301.919 302.753L289.52 291.566L273.366 264.078L297.686 285.006L280.856 248.955L294.684 261.943L288.235 246.008L278.839 231.63L285.354 235.989L289.454 233.598L292.29 234.788L296.833 232.13L267.061 213.649L269.499 274.608L281.886 321.49L307.326 342.407L301.919 302.753Z" fill="white"/>
<path d="M355.258 175.151L354.006 177.864L340.322 200.36L320.367 216.451L311.337 228.672L325.597 241.126L316.5 251.523L310.827 246.186L306.739 226.336L321.143 205.253L355.258 175.151Z" fill="white"/>
</g>
</svg>
